<svg xmlns="http://www.w3.org/2000/svg" viewBox="0 0 240 240">
<g fill="none" stroke="#8fbce0" stroke-width="2.4" stroke-linejoin="round" stroke-linecap="round">
<circle cx="120" cy="120" r="100"/>
<path d="M 120.00,196.00 L 225.71,107.30 Q 217.42,86.53 195.83,80.70 Q 181.93,63.19 159.58,63.80 Q 141.24,51.00 120.00,58.00 Q 98.76,51.00 80.42,63.80 Q 58.07,63.19 44.17,80.70 Q 22.58,86.53 14.29,107.30 L 120.00,196.00 Z"/>
<path d="M 120.00,196.00 L 195.83,80.70"/>
<path d="M 120.00,196.00 L 159.58,63.80"/>
<path d="M 120.00,196.00 L 120.00,58.00"/>
<path d="M 120.00,196.00 L 80.42,63.80"/>
<path d="M 120.00,196.00 L 44.17,80.70"/>
<path d="M 108.0,194.0 Q 120.0,180.0 132.0,194.0"/>
</g>
<g fill="#8fbce0" stroke="none">
<circle cx="147.56" cy="23.87" r="5.0"/>
<circle cx="120.00" cy="20.00" r="5.0"/>
<circle cx="92.44" cy="23.87" r="5.0"/>
<circle cx="120.00" cy="220.00" r="5.0"/>
</g></svg>